<svg width="8" height="8" viewBox="0 0 8 8" fill="none" xmlns="http://www.w3.org/2000/svg">
<path d="M3.75 0C1.6772 0 0 1.67738 0 3.75C0 5.8228 1.67738 7.5 3.75 7.5C5.8228 7.5 7.5 5.82262 7.5 3.75C7.5 1.6772 5.82262 0 3.75 0ZM3.75 7C1.95795 7 0.499995 5.54206 0.499995 3.75C0.499995 1.95794 1.95795 0.499995 3.75 0.499995C5.54205 0.499995 7 1.95795 7 3.75C7 5.54205 5.54205 7 3.75 7Z" fill="#448788"/>
<path d="M5.73509 2.37201C5.63746 2.27437 5.47915 2.27437 5.38153 2.37201L3.15589 4.59765L2.11849 3.56026C2.02086 3.46263 1.86255 3.46263 1.76494 3.56026C1.6673 3.65789 1.6673 3.81618 1.76494 3.91381L2.9791 5.12798C3.07672 5.22559 3.23507 5.22557 3.33266 5.12798L5.73509 2.72555C5.83272 2.62791 5.83272 2.46964 5.73509 2.37201Z" fill="#448788"/>
</svg>
