<svg width="14" height="14" viewBox="0 0 14 14" fill="none" xmlns="http://www.w3.org/2000/svg">
<g clip-path="url(#clip0_81_24)">
<path d="M7 0C3.13078 0 0 3.13111 0 7C0 10.8692 3.13111 14 7 14C10.8692 14 14 10.8689 14 7C14 3.13078 10.8689 0 7 0ZM7 13.0667C3.65485 13.0667 0.933324 10.3452 0.933324 7C0.933324 3.65482 3.65485 0.933324 7 0.933324C10.3452 0.933324 13.0667 3.65485 13.0667 7C13.0667 10.3452 10.3452 13.0667 7 13.0667Z" fill="#8764B8"/>
<path d="M10.7055 4.42775C10.5232 4.2455 10.2277 4.2455 10.0455 4.42775L5.89099 8.58227L3.95451 6.64582C3.77226 6.46357 3.47676 6.46357 3.29454 6.64582C3.11229 6.82806 3.11229 7.12354 3.29454 7.30579L5.56098 9.57223C5.7432 9.75445 6.03878 9.75439 6.22095 9.57223L10.7055 5.08769C10.8877 4.90544 10.8877 4.60999 10.7055 4.42775Z" fill="#8764B8"/>
</g>
<defs>
<clipPath id="clip0_81_24">
<rect width="14" height="14" fill="white"/>
</clipPath>
</defs>
</svg>
