<svg width="17" height="14" viewBox="0 0 17 14" fill="none" xmlns="http://www.w3.org/2000/svg">
<path d="M15.9823 0.0116042C15.9581 0.0113887 15.934 0.0111732 15.9091 0.0109512C15.829 0.0102967 15.7489 0.00986111 15.6688 0.00948104C15.6414 0.00934075 15.6141 0.00920045 15.5859 0.00905591C15.4412 0.00835171 15.2964 0.00784102 15.1517 0.00746082C15.0022 0.00702192 14.8527 0.00584162 14.7032 0.0044995C14.5883 0.00361275 14.4733 0.00330826 14.3583 0.00315931C14.3032 0.00298227 14.2481 0.00258077 14.193 0.00194995C14.1159 0.00111702 14.0387 0.00111469 13.9616 0.00131009C13.9275 0.000661594 13.9275 0.000661594 13.8927 0C13.7866 0.00109889 13.7107 0.00813354 13.6241 0.0726346C13.5486 0.157888 13.5266 0.212384 13.5018 0.322782C13.4978 0.33988 13.4937 0.356978 13.4896 0.374595C13.4809 0.411588 13.4725 0.448643 13.4644 0.48575C13.4514 0.544401 13.4376 0.602789 13.4235 0.661182C13.3925 0.790143 13.3625 0.91934 13.3327 1.04857C13.3216 1.09601 13.3106 1.14345 13.2996 1.19089C13.2767 1.28948 13.2539 1.38808 13.2311 1.48669C13.202 1.61273 13.1727 1.73875 13.1434 1.86476C13.1207 1.96237 13.0981 2.06 13.0755 2.15763C13.0647 2.20411 13.0539 2.25059 13.0431 2.29707C13.0281 2.36191 13.0131 2.42678 12.9981 2.49165C12.9915 2.52003 12.9915 2.52003 12.9847 2.54899C12.9588 2.66193 12.9403 2.77442 12.9245 2.88916C12.8981 2.88912 12.8717 2.88908 12.8445 2.88904C11.6807 2.88728 10.517 2.88565 9.35324 2.88469C9.33562 2.88468 9.318 2.88466 9.29985 2.88465C8.91698 2.88433 8.53411 2.88404 8.15123 2.88377C7.96347 2.88364 7.77572 2.88351 7.58796 2.88337C7.55993 2.88335 7.55993 2.88335 7.53134 2.88332C6.92568 2.88288 6.32003 2.88208 5.71437 2.88111C5.092 2.88012 4.46964 2.87947 3.84727 2.87926C3.44618 2.87912 3.04511 2.87868 2.64403 2.87778C2.38124 2.87722 2.11845 2.87706 1.85566 2.87719C1.70395 2.87726 1.55224 2.87715 1.40053 2.87659C1.26167 2.87608 1.12282 2.87605 0.983959 2.87641C0.933697 2.87646 0.883434 2.87632 0.833173 2.87599C0.764864 2.87557 0.696588 2.8758 0.62828 2.87619C0.608751 2.87591 0.589222 2.87563 0.569102 2.87535C0.411465 2.87737 0.273265 2.92343 0.155621 3.03178C0.0388018 3.16459 -0.00488993 3.28764 0.0004273 3.46217C0.0137972 3.5653 0.0450219 3.6582 0.0794925 3.75572C0.143975 3.94361 0.204569 4.13234 0.262316 4.32241C0.274197 4.36146 0.274198 4.36146 0.286319 4.4013C0.302714 4.45527 0.31909 4.50924 0.335451 4.56322C0.46422 4.98784 0.594917 5.41159 0.732628 5.8334C0.82031 6.10284 0.903748 6.37349 0.98661 6.64445C1.09227 6.98988 1.2005 7.33428 1.31211 7.67783C1.38387 7.89897 1.4543 8.12048 1.52352 8.34243C1.53989 8.39485 1.55634 8.44725 1.5728 8.49965C1.62425 8.66373 1.67486 8.82798 1.7232 8.99301C1.74585 9.07014 1.76891 9.14714 1.792 9.22413C1.80283 9.26064 1.81345 9.2972 1.82386 9.33383C1.88838 9.5607 1.95545 9.77067 2.16537 9.90098C2.2418 9.93216 2.3027 9.93202 2.38526 9.93207C2.41828 9.93221 2.4513 9.93236 2.48532 9.93251C2.52202 9.93241 2.55873 9.93231 2.59544 9.9322C2.63439 9.93227 2.67333 9.93237 2.71228 9.93249C2.81945 9.93275 2.92662 9.93269 3.03379 9.93258C3.14932 9.93251 3.26485 9.93275 3.38038 9.93295C3.58065 9.93327 3.78091 9.93341 3.98118 9.93343C4.27099 9.93346 4.5608 9.93386 4.85061 9.93436C5.32113 9.93517 5.79165 9.93581 6.26217 9.93628C6.29034 9.93631 6.31851 9.93634 6.34754 9.93637C6.66174 9.93668 6.97594 9.93695 7.29014 9.93717C7.40401 9.93725 7.51788 9.93733 7.63175 9.93741C7.65985 9.93743 7.68795 9.93745 7.71689 9.93748C8.18547 9.93782 8.65405 9.93847 9.12263 9.93936C9.41168 9.93989 9.70072 9.94016 9.98976 9.9401C10.1879 9.94007 10.386 9.94032 10.5841 9.9408C10.6984 9.94106 10.8127 9.9412 10.927 9.94099C11.0317 9.9408 11.1364 9.94097 11.2411 9.94143C11.2789 9.94154 11.3168 9.94151 11.3546 9.94133C11.694 9.93537 11.694 9.93537 11.9857 10.0868C12.1069 10.3012 12.1384 10.5031 12.0795 10.7423C12.0249 10.9059 11.9389 11.0348 11.7836 11.1168C11.5787 11.1956 11.3929 11.2052 11.1749 11.2037C11.1372 11.2038 11.0995 11.2039 11.0619 11.2041C10.9591 11.2046 10.8563 11.2043 10.7535 11.204C10.6423 11.2038 10.5312 11.2042 10.4201 11.2044C10.2277 11.2049 10.0353 11.2049 9.8429 11.2047C9.56447 11.2045 9.28603 11.2048 9.0076 11.2053C8.55542 11.2062 8.10324 11.2066 7.65107 11.2066C7.61051 11.2067 7.61051 11.2067 7.56914 11.2067C7.52853 11.2067 7.52854 11.2067 7.48711 11.2067C7.10329 11.2068 6.71948 11.2069 6.33566 11.2072C6.30865 11.2073 6.28164 11.2073 6.25381 11.2073C5.80324 11.2077 5.35267 11.2082 4.9021 11.2089C4.6244 11.2093 4.34669 11.2095 4.06899 11.2094C3.87872 11.2094 3.68846 11.2095 3.49819 11.2098C3.38848 11.2099 3.27877 11.21 3.16905 11.2098C3.06851 11.2096 2.96798 11.2097 2.86744 11.21C2.81407 11.2101 2.7607 11.2099 2.70734 11.2097C2.25106 11.2116 1.93018 11.3204 1.59437 11.6332C1.30546 11.9337 1.209 12.3161 1.21555 12.722C1.24637 13.1046 1.41902 13.4336 1.69814 13.6939C2.016 13.9417 2.35611 14.028 2.75226 13.9837C3.08055 13.9194 3.37892 13.7326 3.5692 13.4567C3.8162 13.0453 3.89097 12.6642 3.78002 12.1917C3.72874 12.0306 3.66424 11.9127 3.5692 11.7701C5.7868 11.7788 8.0044 11.7875 10.2892 11.7964C10.2283 11.9182 10.1674 12.0399 10.1047 12.1654C9.98699 12.5307 10.0369 12.8985 10.1838 13.2459C10.3615 13.5916 10.625 13.8222 10.9925 13.9557C11.3179 14.0396 11.6708 14.006 11.9632 13.8408C12.0222 13.8028 12.0781 13.7627 12.1339 13.7202C12.1611 13.7006 12.1883 13.6811 12.2163 13.6609C12.4895 13.3995 12.6573 13.0231 12.6675 12.6447C12.6552 12.1772 12.4668 11.8232 12.1603 11.4802C12.1758 11.4734 12.1913 11.4666 12.2073 11.4595C12.4243 11.3405 12.5321 11.0884 12.6017 10.8627C12.6811 10.5267 12.655 10.1821 12.4885 9.87732C12.3568 9.67567 12.1946 9.54952 11.9758 9.45104C11.9918 9.30833 12.0151 9.1698 12.0473 9.0298C12.0518 9.00989 12.0563 8.98998 12.061 8.96947C12.0758 8.90377 12.0909 8.83811 12.1059 8.77245C12.1166 8.72534 12.1273 8.67823 12.138 8.63111C12.1604 8.53226 12.1829 8.43342 12.2055 8.33459C12.2377 8.19331 12.2697 8.05197 12.3016 7.91063C12.46 7.20989 12.6223 6.51009 12.7851 5.81035C12.9337 5.17147 13.0807 4.53227 13.2258 3.89258C13.3572 3.3134 13.4909 2.73477 13.6247 2.15614C13.6768 1.931 13.7287 1.70583 13.7806 1.48066C13.7997 1.39789 13.8188 1.31513 13.8379 1.23236C13.8465 1.19515 13.8551 1.15793 13.8637 1.12072C13.8834 1.03518 13.9033 0.949701 13.9235 0.864291C13.9308 0.833484 13.9381 0.802677 13.9456 0.770937C13.952 0.744115 13.9584 0.717293 13.965 0.689658C13.9786 0.622804 13.9786 0.622804 13.9786 0.543746C14.0213 0.544184 14.0213 0.544184 14.0648 0.544632C14.3327 0.547303 14.6006 0.549279 14.8686 0.550573C15.0063 0.55126 15.1441 0.552193 15.2818 0.553686C15.4148 0.555118 15.5477 0.555905 15.6806 0.556247C15.7313 0.55649 15.7821 0.556966 15.8328 0.557677C15.9038 0.558634 15.9748 0.558765 16.0459 0.558704C16.0773 0.559415 16.0773 0.559415 16.1094 0.56014C16.2166 0.559143 16.2652 0.5486 16.3502 0.481104C16.4234 0.385334 16.4203 0.325831 16.4144 0.209393C16.4031 0.148452 16.4031 0.148452 16.3553 0.0809222C16.2369 0.00313428 16.1188 0.0122741 15.9823 0.0116042Z" fill="#114280"/>
<path d="M12.3184 5.52444C11.4748 5.52444 10.6313 5.52444 9.76214 5.52444C9.66898 6.26974 9.66898 6.26974 9.63208 6.61253C9.62525 6.67582 9.61827 6.73909 9.61128 6.80236C9.60683 6.84339 9.60238 6.88443 9.59795 6.92547C9.59589 6.944 9.59383 6.96253 9.59171 6.98162C9.58063 7.08599 9.57767 7.18443 9.57767 7.29009C10.3517 7.29009 11.1256 7.29009 11.9231 7.29009C11.9687 7.0917 12.0144 6.89331 12.0614 6.68891C12.0756 6.62743 12.0898 6.56595 12.1044 6.50261C12.116 6.45199 12.1276 6.40137 12.1393 6.35075C12.1478 6.31363 12.1478 6.31363 12.1566 6.27575C12.2139 6.02591 12.2655 5.77542 12.3184 5.52444Z" fill="#FEFEFE"/>
<path d="M12.7927 3.41621C11.8709 3.41621 10.9491 3.41621 9.99931 3.41621C9.93068 3.94239 9.87187 4.46983 9.81484 4.99739C10.6758 4.99739 11.5367 4.99739 12.4238 4.99739C12.462 4.90186 12.4892 4.82191 12.5115 4.72329C12.5178 4.69551 12.5242 4.66772 12.5307 4.6391C12.5373 4.60939 12.544 4.57969 12.5508 4.54908C12.5578 4.51839 12.5647 4.4877 12.5719 4.45608C12.5865 4.39135 12.601 4.3266 12.6156 4.26184C12.6379 4.1624 12.6604 4.063 12.6829 3.9636C12.6971 3.90073 12.7112 3.83785 12.7254 3.77496C12.7321 3.7451 12.7389 3.71523 12.7459 3.68446C12.752 3.65693 12.7582 3.62939 12.7645 3.60103C12.77 3.57673 12.7754 3.55243 12.7811 3.5274C12.7927 3.46892 12.7927 3.46892 12.7927 3.41621Z" fill="#FEFEFE"/>
<path d="M3.33203 3.41621C2.4102 3.41621 1.48838 3.41621 0.538615 3.41621C0.597919 3.71273 0.597919 3.71273 0.633173 3.82778C0.640998 3.85353 0.648823 3.87927 0.656886 3.9058C0.669323 3.94601 0.669323 3.94601 0.682012 3.98702C0.694968 4.02936 0.694968 4.02936 0.708185 4.07256C0.726308 4.13168 0.744493 4.19079 0.762738 4.24988C0.790774 4.34073 0.81858 4.43164 0.846358 4.52257C0.864033 4.58014 0.881721 4.6377 0.899424 4.69526C0.911942 4.73618 0.911942 4.73618 0.924713 4.77793C0.932455 4.80293 0.940197 4.82793 0.948173 4.85369C0.954978 4.87578 0.961783 4.89786 0.968794 4.92062C0.986615 4.97104 0.986615 4.97104 1.01297 4.99739C1.09158 4.9999 1.16958 5.0007 1.2482 5.00038C1.27287 5.00039 1.29755 5.00039 1.32298 5.00039C1.40497 5.00037 1.48696 5.00017 1.56895 4.99996C1.62564 4.99991 1.68232 4.99988 1.739 4.99985C1.88851 4.99975 2.03802 4.99949 2.18753 4.9992C2.33997 4.99893 2.49241 4.99881 2.64484 4.99868C2.94418 4.99839 3.24351 4.99794 3.54285 4.99739C3.49869 4.4675 3.40876 3.94237 3.33203 3.41621Z" fill="#FEFEFE"/>
<path d="M3.64825 5.52444C2.83948 5.52444 2.03071 5.52444 1.19743 5.52444C1.25673 5.82094 1.25673 5.82094 1.29683 5.95011C1.30571 5.97893 1.31459 6.00776 1.32374 6.03746C1.33318 6.06764 1.34263 6.09782 1.35236 6.12891C1.36707 6.17642 1.36707 6.17642 1.38207 6.22489C1.40792 6.30826 1.43388 6.39158 1.45989 6.47489C1.48118 6.54316 1.50232 6.61146 1.52347 6.67977C1.54873 6.76135 1.57407 6.8429 1.59942 6.92444C1.61366 6.97035 1.61366 6.97035 1.6282 7.01719C1.63699 7.04535 1.64579 7.07352 1.65486 7.10253C1.6626 7.12737 1.67034 7.15221 1.67831 7.1778C1.69814 7.23739 1.69814 7.23739 1.72449 7.29009C2.4463 7.29009 3.1681 7.29009 3.91178 7.29009C3.82763 6.701 3.74012 6.11238 3.64825 5.52444Z" fill="#FEFEFE"/>
<path d="M6.41532 3.41621C5.56307 3.41621 4.71081 3.41621 3.83273 3.41621C3.89371 3.93456 3.89371 3.93456 3.92425 4.14915C3.92931 4.18496 3.92931 4.18496 3.93447 4.22149C3.94146 4.27081 3.94847 4.32013 3.95552 4.36945C3.96634 4.44533 3.97697 4.52124 3.98761 4.59715C3.99448 4.64547 4.00136 4.69378 4.00825 4.7421C4.0114 4.76476 4.01456 4.78743 4.01781 4.81079C4.04054 4.96802 4.04054 4.96802 4.06991 4.99739C4.14369 4.9999 4.21683 5.0007 4.29062 5.00038C4.32533 5.00039 4.32533 5.00039 4.36073 5.00039C4.43759 5.00037 4.51445 5.00017 4.59131 4.99996C4.64444 4.99991 4.69758 4.99988 4.75072 4.99985C4.89087 4.99975 5.03102 4.99949 5.17118 4.9992C5.33918 4.99888 5.50718 4.99876 5.67519 4.99861C5.93068 4.99835 6.18618 4.99785 6.44167 4.99739C6.42863 4.21471 6.42863 4.21471 6.41532 3.41621Z" fill="#FEFEFE"/>
<path d="M9.47226 3.41621C8.6287 3.41621 7.78514 3.41621 6.91603 3.41621C6.91603 3.94335 6.92887 4.47043 6.94238 4.99739C7.72506 4.99739 8.50774 4.99739 9.31414 4.99739C9.47226 3.73245 9.47226 3.73245 9.47226 3.41621Z" fill="#FEFEFE"/>
<path d="M6.46802 5.52444C5.70273 5.52444 4.93744 5.52444 4.14896 5.52444C4.19583 5.91501 4.24273 6.30419 4.30009 6.69315C4.3107 6.76525 4.32109 6.83738 4.33148 6.90952C4.33823 6.95567 4.34499 7.00182 4.35176 7.04797C4.35483 7.0694 4.35791 7.09084 4.36108 7.11292C4.38312 7.26071 4.38312 7.26071 4.41249 7.29009C4.47664 7.29259 4.54003 7.2934 4.60418 7.29308C4.63426 7.29309 4.63426 7.29309 4.66494 7.29309C4.73153 7.29308 4.79812 7.29287 4.86471 7.29266C4.91076 7.29262 4.95681 7.29258 5.00286 7.29255C5.12429 7.29245 5.24573 7.29219 5.36717 7.2919C5.51274 7.29158 5.65832 7.29146 5.8039 7.29131C6.02527 7.29105 6.24665 7.29055 6.46802 7.29009C6.46802 6.70743 6.46802 6.12476 6.46802 5.52444Z" fill="#FEFEFE"/>
<path d="M9.23508 5.52444C8.47849 5.52444 7.7219 5.52444 6.94238 5.52444C6.94618 5.78153 6.94999 6.03862 6.95391 6.3035C6.95504 6.38437 6.95618 6.46524 6.95735 6.54856C6.95835 6.61295 6.95937 6.67734 6.96039 6.74172C6.96082 6.77492 6.96126 6.80812 6.96171 6.84232C6.96224 6.8744 6.96277 6.90648 6.96332 6.93953C6.96373 6.96721 6.96414 6.99489 6.96456 7.02341C6.96909 7.11277 6.98243 7.20152 6.99508 7.29009C7.67341 7.29009 8.35173 7.29009 9.05061 7.29009C9.08491 7.11858 9.11418 6.95531 9.1306 6.78249C9.1328 6.76049 9.135 6.73848 9.13727 6.71582C9.14419 6.64647 9.15094 6.5771 9.15767 6.50774C9.16453 6.43809 9.17142 6.36845 9.17835 6.29881C9.18263 6.25576 9.18685 6.2127 9.19102 6.16964C9.1996 6.08242 9.20909 5.9966 9.22339 5.91008C9.23898 5.78242 9.23508 5.65305 9.23508 5.52444Z" fill="#FEFEFE"/>
<path d="M11.7913 7.81715C11.0347 7.81715 10.2781 7.81715 9.49861 7.81715C9.47252 8.0487 9.44643 8.28024 9.41955 8.5188C9.41129 8.59165 9.40304 8.66451 9.39453 8.73957C9.38804 8.79754 9.38156 8.85551 9.37508 8.91348C9.37166 8.94339 9.36825 8.97331 9.36473 9.00414C9.36152 9.03301 9.35831 9.06188 9.35501 9.09163C9.3522 9.11656 9.34939 9.14149 9.34649 9.16717C9.34018 9.24399 9.34049 9.32125 9.34049 9.39833C10.0362 9.39833 10.7319 9.39833 11.4487 9.39833C11.5004 9.16679 11.552 8.93524 11.6052 8.69668C11.6215 8.62383 11.6377 8.55097 11.6545 8.47591C11.6674 8.41794 11.6803 8.35998 11.6932 8.30201C11.6999 8.27209 11.7066 8.24217 11.7135 8.21135C11.7199 8.18247 11.7263 8.1536 11.7329 8.12385C11.7385 8.09892 11.7441 8.074 11.7498 8.04831C11.7657 7.97166 11.7784 7.89437 11.7913 7.81715Z" fill="#FCFDFD"/>
<path d="M3.99084 7.81715C3.30382 7.81715 2.6168 7.81715 1.90896 7.81715C1.96825 8.11362 1.96825 8.11362 2.00636 8.23156C2.01919 8.27164 2.01919 8.27164 2.03228 8.31253C2.04553 8.35318 2.04553 8.35318 2.05905 8.39465C2.0714 8.43311 2.0714 8.43311 2.08401 8.47234C2.11444 8.56694 2.14513 8.66145 2.17578 8.75598C2.24427 8.96795 2.31275 9.17993 2.38331 9.39833C2.98337 9.39833 3.58343 9.39833 4.20167 9.39833C4.18542 9.17083 4.16787 8.9521 4.13239 8.72818C4.12879 8.70472 4.12519 8.68127 4.12148 8.6571C4.10829 8.57144 4.09485 8.48583 4.08143 8.40021C4.05154 8.2078 4.02164 8.01539 3.99084 7.81715Z" fill="#FCFCFD"/>
<path d="M6.49438 7.81715C5.83345 7.81715 5.17252 7.81715 4.49156 7.81715C4.58352 8.52222 4.58352 8.52222 4.63143 8.83476C4.64007 8.8912 4.64858 8.94766 4.65709 9.00412C4.66264 9.04064 4.6682 9.07717 4.67376 9.1137C4.67864 9.14572 4.68352 9.17774 4.68855 9.21074C4.70238 9.29292 4.70238 9.29292 4.72873 9.39833C5.32009 9.39833 5.91145 9.39833 6.52073 9.39833C6.52128 9.23038 6.52182 9.06243 6.52238 8.88939C6.52262 8.83754 6.52286 8.78569 6.52311 8.73227C6.52319 8.68922 6.52325 8.64616 6.52331 8.60311C6.52344 8.58234 6.52358 8.56157 6.52372 8.54018C6.52375 8.298 6.50717 8.06022 6.49438 7.81715Z" fill="#FCFCFC"/>
<path d="M8.9979 7.81715C8.33697 7.81715 7.67604 7.81715 6.99508 7.81715C6.99508 8.39271 6.99508 8.39271 7.00085 8.60311C7.00136 8.62385 7.00188 8.64458 7.00242 8.66595C7.00429 8.74043 7.00628 8.81491 7.00826 8.88939C7.01261 9.05734 7.01695 9.22529 7.02143 9.39833C7.62149 9.39833 8.22155 9.39833 8.83979 9.39833C8.86588 9.16679 8.89196 8.93524 8.91884 8.69668C8.9271 8.62383 8.93535 8.55097 8.94386 8.47591C8.95035 8.41794 8.95684 8.35998 8.96332 8.30201C8.96673 8.27209 8.97014 8.24217 8.97366 8.21135C8.97687 8.18247 8.98008 8.1536 8.98339 8.12385C8.9862 8.09892 8.98901 8.074 8.9919 8.04831C8.99821 7.97149 8.9979 7.89423 8.9979 7.81715Z" fill="#FDFDFD"/>
<path d="M10.8953 11.9018C10.867 11.9203 10.8388 11.9388 10.8097 11.9578C10.6128 12.1636 10.5443 12.3842 10.547 12.6616C10.564 12.909 10.6566 13.0969 10.8393 13.264C11.0263 13.4214 11.2 13.4699 11.4408 13.4673C11.6625 13.4402 11.8544 13.3203 11.9916 13.1462C12.1322 12.9232 12.1956 12.6753 12.1481 12.415C12.086 12.1778 11.9436 11.9848 11.7386 11.8491C11.4608 11.7045 11.1521 11.7339 10.8953 11.9018Z" fill="#FDFDFD"/>
<path d="M2.08931 11.8822C1.90249 12.0101 1.78026 12.1975 1.73715 12.4208C1.70866 12.6999 1.75107 12.9406 1.91966 13.1695C2.05247 13.3277 2.22157 13.4391 2.42829 13.466C2.67897 13.4737 2.89768 13.4076 3.08321 13.2337C3.2575 13.0486 3.34171 12.7995 3.33757 12.5474C3.31539 12.2849 3.19549 12.0962 3.0059 11.92C2.74003 11.7074 2.37815 11.7142 2.08931 11.8822Z" fill="#FDFDFD"/>
</svg>
