<svg width="15" height="14" viewBox="0 0 15 14" fill="none" xmlns="http://www.w3.org/2000/svg">
<path d="M0.0403078 5.28706C0.155857 4.9401 0.501126 4.70157 0.987462 4.63264L4.84443 4.08588L6.56934 0.676512C6.78684 0.246558 7.12608 0 7.50003 0C7.87398 0 8.21318 0.246586 8.43069 0.676512L10.1555 4.08585L14.0125 4.63264C14.4989 4.70157 14.8441 4.94007 14.9597 5.28703C15.0752 5.63399 14.9397 6.0249 14.5878 6.35951L11.7968 9.01334L12.4557 12.7607C12.5423 13.2536 12.3952 13.5484 12.2565 13.7089C12.0942 13.8966 11.8575 14 11.59 14C11.3877 14 11.1723 13.9421 10.9498 13.828L7.5 12.0587L4.05018 13.828C3.82766 13.9421 3.6123 14 3.40994 14C3.14237 14 2.90565 13.8966 2.7434 13.7089C2.6047 13.5484 2.45754 13.2536 2.5442 12.7607L3.20319 9.01334L0.412237 6.35954C0.0603469 6.0249 -0.075241 5.63402 0.0403078 5.28706ZM1.02575 5.74556L3.98215 8.5567C4.08574 8.65518 4.133 8.79708 4.10854 8.93615L3.4105 12.9056C3.38803 13.0334 3.39942 13.1101 3.41003 13.1425C3.43654 13.1425 3.51196 13.1353 3.64113 13.069L7.29547 11.1949C7.35952 11.1621 7.42974 11.1457 7.49997 11.1457C7.5702 11.1457 7.64045 11.1621 7.70446 11.1949L11.3588 13.0691C11.4879 13.1353 11.5632 13.1425 11.5898 13.1425C11.6004 13.1101 11.6118 13.0334 11.5894 12.9056L10.8914 8.93612C10.867 8.79705 10.9143 8.65515 11.0178 8.55667L13.9742 5.74551C14.0695 5.65485 14.1065 5.58626 14.1174 5.55396C14.0891 5.5341 14.0179 5.49978 13.8861 5.48109L9.8004 4.90189C9.65725 4.8816 9.53353 4.79389 9.46951 4.66736L7.64241 1.05588C7.58352 0.939446 7.52807 0.883972 7.49994 0.863852C7.47181 0.883972 7.41633 0.939446 7.35744 1.05591L5.53031 4.66736C5.46626 4.79389 5.34257 4.8816 5.19942 4.90189L1.11379 5.48109C0.982011 5.49975 0.91079 5.53407 0.882518 5.55396C0.893475 5.58629 0.930419 5.65491 1.02575 5.74556Z" fill="#8764B8"/>
</svg>
