<svg width="14" height="14" viewBox="0 0 14 14" fill="none" xmlns="http://www.w3.org/2000/svg">
<path d="M2.72854 6.82411H7.34547C7.50995 6.82411 7.64333 6.69072 7.64333 6.52624C7.64333 6.36177 7.50995 6.22838 7.34547 6.22838H2.72854C2.56397 6.22838 2.43068 6.36177 2.43068 6.52624C2.43068 6.69072 2.56397 6.82411 2.72854 6.82411Z" fill="#114280"/>
<path d="M5.49265 8.16455H2.72854C2.56397 8.16455 2.43068 8.29794 2.43068 8.46242C2.43068 8.62689 2.56397 8.76028 2.72854 8.76028H5.49265C5.65712 8.76028 5.79051 8.62689 5.79051 8.46242C5.79051 8.29794 5.65712 8.16455 5.49265 8.16455Z" fill="#114280"/>
<path d="M10.6636 7.50316V2.35612C10.6634 1.53364 9.99667 0.86707 9.17428 0.866791H7.95303V0.297866C7.95303 0.133295 7.81973 0 7.65516 0C7.49068 0 7.35729 0.133295 7.35729 0.297866V0.866791H3.30631V0.297866C3.30631 0.133295 3.17302 0 3.00845 0C2.84397 0 2.71058 0.133295 2.71058 0.297866V0.866791H1.48933C0.666941 0.86707 0.000372333 1.53364 0 2.35612V10.4253C0.000372333 11.2477 0.666941 11.9143 1.48933 11.9146H7.00293C7.57604 13.3826 9.11303 14.2347 10.6617 13.9431C12.2103 13.6517 13.3323 12.2991 13.3326 10.7232C13.3355 9.12364 12.1827 7.7892 10.6636 7.50316ZM1.4924 1.46252H2.71365V2.03145C2.71365 2.19593 2.84695 2.32931 3.01152 2.32931C3.176 2.32931 3.30939 2.19593 3.30939 2.03145V1.46252H7.36037V2.03145C7.36037 2.19593 7.49366 2.32931 7.65823 2.32931C7.82271 2.32931 7.9561 2.19593 7.9561 2.03145V1.46252H9.17735C9.67023 1.46392 10.0695 1.86315 10.0709 2.35612V3.07696H0.598804V2.35612C0.599176 1.86269 0.999062 1.4629 1.4924 1.46252ZM1.4924 11.3189C0.999434 11.3175 0.6002 10.9182 0.598804 10.4253V3.66971H10.0679V7.44665H10.0589C9.08613 7.44814 8.16414 7.88107 7.54179 8.6289C6.91934 9.37664 6.66094 10.362 6.83603 11.3189H1.4924ZM10.0589 13.404C8.57845 13.404 7.37815 12.2038 7.37815 10.7232C7.37815 9.2426 8.57845 8.04239 10.0589 8.04239C11.5395 8.04239 12.7397 9.2426 12.7397 10.7232C12.7375 12.2028 11.5386 13.4017 10.0589 13.404Z" fill="#114280"/>
<path d="M11.4381 9.65384L9.66883 11.3427L8.75428 10.4253C8.6384 10.3093 8.45037 10.3093 8.33439 10.4253C8.21831 10.5413 8.21831 10.7293 8.33439 10.8453L9.45725 11.9683C9.5131 12.0245 9.58943 12.0557 9.66883 12.0546C9.74571 12.0553 9.81962 12.0253 9.87426 11.9711L11.8521 10.0797C11.9091 10.0252 11.942 9.95049 11.9438 9.87165C11.9454 9.79281 11.9157 9.71657 11.861 9.65979C11.745 9.54344 11.5573 9.54074 11.4381 9.65384Z" fill="#114280"/>
</svg>
