<svg width="14" height="14" viewBox="0 0 14 14" fill="none" xmlns="http://www.w3.org/2000/svg">
<path d="M6.96607 0H7.049L7.19225 0.0226171L7.31287 0.0678514L7.41842 0.128164L7.51642 0.211093L10.6828 3.37749L10.7658 3.49058L10.8185 3.59612L10.8562 3.71675L10.8638 3.76198V3.96554L10.8336 4.0937L10.7959 4.18417L10.7507 4.2671L10.6904 4.35003H10.6753L10.6602 4.38018L10.5924 4.4405L10.4868 4.50835L10.3813 4.55358L10.2682 4.58374L10.2229 4.59128H10.042L9.93646 4.56866L9.83845 4.53096L9.74044 4.47819L9.66505 4.41788L9.55197 4.31233L7.7426 2.50296L7.73506 2.73667V6.96607L7.7426 7.27518L7.76521 7.57674L7.80291 7.87076L7.85568 8.15724L7.91599 8.41357L7.99138 8.6699L8.08185 8.93376L8.17232 9.15994L8.28541 9.40872L8.38341 9.60474L8.4588 9.74044L8.55681 9.9063L8.63974 10.0345L8.75283 10.2003L8.83576 10.3134L8.91115 10.4114L8.99408 10.517L9.09208 10.63L9.15994 10.7054L9.21271 10.7658L9.26548 10.8185L9.31826 10.8788L9.4238 10.9844L9.48411 11.0372L9.55197 11.105L9.63489 11.1729L9.72536 11.2558L9.80075 11.3161L9.93646 11.4216L10.0797 11.5272L10.2154 11.6177L10.3662 11.7157L10.4491 11.7684L10.6979 11.9041L10.8411 11.9795L11.0899 12.0926L11.3538 12.1982L11.6403 12.2962L11.9418 12.3791L12.1756 12.4319L12.4394 12.4771L12.7561 12.5148L13.0802 12.5374L13.2913 12.545L13.427 12.56L13.5477 12.5977L13.6683 12.6581L13.7738 12.741L13.8266 12.7938L13.902 12.8993L13.9548 13.0048L13.9925 13.1255L14 13.1707V13.3743L13.9698 13.5024L13.9321 13.5929L13.8869 13.6758L13.8266 13.7512L13.7663 13.8191L13.6607 13.8945L13.5401 13.9548L13.4044 13.9925L13.3441 14H13.0199L12.741 13.9849L12.4394 13.9548L12.1303 13.9095L11.8438 13.8568L11.5272 13.7814L11.2558 13.706L10.9316 13.6004L10.6376 13.4873L10.3737 13.3743L10.1249 13.2536L9.9063 13.1405L9.72536 13.035L9.55951 12.937L9.43134 12.8541L9.2504 12.7334L9.03931 12.5751L8.9413 12.4997L8.83576 12.4168L8.76037 12.349L8.68498 12.2886L8.58697 12.1982L8.52666 12.1454L8.40603 12.0323L8.17232 11.7986L8.11955 11.7383L8.00646 11.6177L7.93861 11.5347L7.8406 11.4216L7.75767 11.3161L7.65967 11.1879L7.56166 11.0522L7.47119 10.9241L7.34303 10.7281L7.21486 10.517L7.10178 10.3134L7.01131 10.14H6.99623L6.90576 10.3134L6.83037 10.4491L6.72483 10.63L6.61928 10.7959L6.51373 10.9542L6.41572 11.0975L6.34033 11.1955L6.27248 11.2859L6.18955 11.3915L6.10662 11.4895L6.04631 11.5649L5.95584 11.6629L5.90307 11.7232L5.79752 11.8363L5.71459 11.9192L5.70705 11.9343H5.69198V11.9494H5.6769V11.9645L5.61659 12.0172L5.5035 12.1303L5.44319 12.1831L5.35272 12.266L5.26979 12.3339L5.18686 12.4093L5.08885 12.4847L4.97577 12.5751L4.83253 12.6807L4.68174 12.7862L4.52342 12.8918L4.4028 12.9672L4.28971 13.035L4.07862 13.1556L3.87507 13.2612L3.70921 13.3441L3.4378 13.4647L3.1287 13.5854L2.8573 13.6758L2.60851 13.7512L2.30695 13.8266L2.01292 13.8869L1.68121 13.9397L1.42488 13.9698L1.13086 13.9925L0.972536 14H0.648358L0.527733 13.9774L0.429725 13.9397L0.331718 13.8869L0.256327 13.8266L0.15832 13.7286L0.0904685 13.623L0.0527733 13.5477L0.0150781 13.427L0 13.3215V13.2461L0.0150781 13.1255L0.0527733 13.0048L0.113086 12.8842L0.188476 12.7862L0.263866 12.7108L0.361874 12.643L0.467421 12.5902L0.572967 12.56L0.70867 12.545L1.063 12.5299L1.34949 12.5073L1.66613 12.462L1.89984 12.4168L2.12601 12.364L2.35972 12.2962L2.63113 12.2057L2.87991 12.1077L3.1287 11.9946L3.36995 11.874L3.55089 11.7684L3.70167 11.678L3.81476 11.6026L3.96554 11.497L4.10878 11.3915L4.2294 11.2935L4.42542 11.1276L4.5385 11.0221L4.61389 10.9467L4.67421 10.8939L4.74206 10.8185L4.80991 10.7507L4.81745 10.7356H4.83253L4.8476 10.7054L4.93053 10.615L4.99838 10.532L5.09639 10.4114L5.1944 10.2833L5.35272 10.0571L5.46581 9.87614L5.5412 9.74798L5.61659 9.61228L5.72967 9.39365L5.82768 9.17501L5.92569 8.92623L6.02369 8.63974L6.09155 8.39849L6.15186 8.14216L6.20463 7.85568L6.24233 7.53904L6.2574 7.35057L6.26494 7.17717V2.50296L4.35757 4.41034L4.25202 4.48573L4.13139 4.54604L4.03339 4.5762L3.95046 4.59128H3.76952L3.66397 4.56866L3.56597 4.53096L3.46796 4.47819L3.39257 4.41788L3.29456 4.31987L3.22671 4.21432L3.18901 4.13893L3.15132 4.01831L3.13624 3.91276V3.82983L3.15132 3.71675L3.18901 3.59612L3.24933 3.4755L3.32472 3.37749L6.37803 0.324179L6.41572 0.278945L6.47604 0.226171L6.53635 0.165859L6.63436 0.0980075L6.7399 0.0452342L6.84545 0.0150781L6.96607 0Z" fill="#114280"/>
</svg>
