<svg width="14" height="16" viewBox="0 0 14 16" fill="none" xmlns="http://www.w3.org/2000/svg">
<path d="M13.792 2.34375L11.6562 0.207992C11.522 0.0738777 11.3437 0 11.154 0H2.16165C1.77008 0 1.45148 0.318597 1.45148 0.710167V7.74134H0.95208C0.42709 7.74134 0 8.16846 0 8.69342V13.0479C0 13.5729 0.42709 14 0.95208 14H8.45151C8.84311 14 9.16168 13.6814 9.16168 13.2899V9.90305C9.16168 9.51145 8.84308 9.19285 8.45151 9.19285H0.95208C0.676699 9.19285 0.452682 8.96883 0.452682 8.69345C0.452682 8.41807 0.676699 8.19405 0.95208 8.19405H1.45148V8.45163C1.45148 8.57663 1.55282 8.67797 1.67782 8.67797C1.80282 8.67797 1.90416 8.57663 1.90416 8.45163V0.710167C1.90416 0.568176 2.01969 0.452682 2.16165 0.452682H10.8862V2.6455C10.8862 2.90371 11.0963 3.11379 11.3545 3.11379H13.5473V14.7414C13.5473 14.8834 13.4318 14.9989 13.2898 14.9989H2.16165C2.01966 14.9989 1.90416 14.8834 1.90416 14.7414C1.90416 14.6164 1.80282 14.515 1.67782 14.515C1.55282 14.515 1.45148 14.6164 1.45148 14.7414C1.45148 15.133 1.77008 15.4515 2.16165 15.4515H13.2898C13.6814 15.4515 14 15.1329 14 14.7414V2.84592C14 2.65625 13.9262 2.47789 13.792 2.34375ZM0.95208 9.64553H8.45151C8.5935 9.64553 8.70899 9.76106 8.70899 9.90305V13.2899C8.70899 13.4319 8.59347 13.5474 8.45151 13.5474H0.95208C0.676699 13.5474 0.452682 13.3233 0.452682 13.048V9.50375C0.597932 9.59366 0.769046 9.64553 0.95208 9.64553ZM11.3389 2.6455V0.530935L13.4692 2.66111H11.3545C11.3459 2.66111 11.3389 2.6541 11.3389 2.6455Z" fill="#114280"/>
<path d="M6.4136 12.7835C6.5386 12.7835 6.63994 12.6822 6.63994 12.5572V11.8047H7.13037C7.25537 11.8047 7.35671 11.7034 7.35671 11.5784C7.35671 11.4534 7.25537 11.3521 7.13037 11.3521H6.63994V10.8623H7.19224C7.31724 10.8623 7.41858 10.761 7.41858 10.636C7.41858 10.511 7.31724 10.4097 7.19224 10.4097H6.4136C6.2886 10.4097 6.18726 10.511 6.18726 10.636V12.5572C6.18726 12.6822 6.2886 12.7835 6.4136 12.7835Z" fill="#114280"/>
<path d="M4.03455 12.6962C4.07695 12.7383 4.13429 12.7619 4.19401 12.7619C4.21009 12.7619 4.59014 12.7604 4.74161 12.7578C5.30091 12.748 5.70687 12.2596 5.70687 11.5965C5.70687 10.8995 5.31114 10.4312 4.72211 10.4312H4.19021C4.13009 10.4312 4.07248 10.4551 4.03002 10.4976C3.98756 10.5402 3.96375 10.5978 3.96387 10.6579V10.6594V12.5051C3.96387 12.5206 3.96544 12.5358 3.96842 12.5505C3.97205 12.6054 3.99528 12.6573 4.03455 12.6962ZM4.72211 10.8838C5.11443 10.8838 5.25419 11.252 5.25419 11.5965C5.25419 12.0798 4.99278 12.3006 4.7337 12.3051C4.66169 12.3064 4.53322 12.3074 4.41957 12.3081C4.41884 12.086 4.41733 11.1148 4.41694 10.8838H4.72211Z" fill="#114280"/>
<path d="M2.15456 12.7904C2.27956 12.7904 2.3809 12.6891 2.3809 12.5641V11.9485C2.49329 11.9479 2.62107 11.9473 2.69344 11.9473C3.12529 11.9473 3.47664 11.6008 3.47664 11.1749C3.47664 10.7489 3.12529 10.4023 2.69344 10.4023H2.15456C2.09442 10.4023 2.03675 10.4263 1.99425 10.4689C1.95194 10.5113 1.92825 10.5688 1.92825 10.6287L1.92822 12.564C1.92822 12.6891 2.02956 12.7904 2.15456 12.7904ZM2.69344 10.8551C2.87261 10.8551 3.02395 11.0015 3.02395 11.1749C3.02395 11.3482 2.87261 11.4947 2.69344 11.4947C2.62155 11.4947 2.49537 11.4953 2.38341 11.4958C2.38281 11.3802 2.3819 10.976 2.38157 10.8551H2.69344Z" fill="#114280"/>
<path d="M6.39476 6.56302C5.83847 6.7386 5.26752 6.98163 4.96295 7.296C4.71165 7.55538 4.66612 7.85633 4.83798 8.12169C4.95462 8.30177 5.11496 8.39589 5.29525 8.39589C5.36445 8.39589 5.43661 8.38201 5.51034 8.35382C5.7763 8.25212 6.06354 7.9628 6.38848 7.46928C6.49338 7.30997 6.59958 7.13291 6.7053 6.94137C6.74377 6.93005 6.78301 6.91879 6.82314 6.90757C7.46191 6.72885 8.18457 6.59914 8.81881 6.54494C9.20543 6.91879 9.60506 7.21008 9.94574 7.28954C10.3205 7.37697 10.6177 7.20558 10.7404 6.83106C10.8147 6.60421 10.7292 6.3903 10.5114 6.25887C10.2875 6.1237 9.89851 6.05843 9.35539 6.06464C9.23971 6.06597 9.11761 6.07068 8.99055 6.07856C8.74656 5.82692 8.4927 5.52619 8.24822 5.19408C8.05882 4.9368 7.88951 4.67935 7.74634 4.43463C7.76192 4.381 7.7767 4.3281 7.79074 4.27613C7.94546 3.70234 8.00066 3.26303 7.95476 2.97035C7.88846 2.5477 7.61567 2.48767 7.50147 2.48152C7.11262 2.46048 6.8507 2.65667 6.80087 3.00629C6.76128 3.28403 6.85468 3.66615 7.07846 4.14201C7.13166 4.25512 7.19133 4.3717 7.25684 4.49076C7.23243 4.5691 7.20596 4.65062 7.17729 4.73545C6.96864 5.35273 6.68604 6.01047 6.39476 6.56302ZM5.30781 7.94201C5.29166 7.94403 5.26444 7.94744 5.2179 7.87558C5.18003 7.81709 5.17798 7.77297 5.2103 7.71274C5.28587 7.57186 5.54387 7.37419 6.04311 7.17C5.69467 7.71044 5.43426 7.92622 5.30781 7.94201ZM10.314 6.67471C10.3137 6.67751 10.3127 6.68252 10.3102 6.69013C10.2537 6.86263 10.1778 6.8789 10.0486 6.84875C9.89085 6.81196 9.69052 6.69544 9.46708 6.51711C10.0721 6.52194 10.2832 6.63095 10.314 6.67471ZM7.249 3.07021C7.25823 3.00551 7.26858 2.93275 7.44078 2.93275C7.45162 2.93275 7.46312 2.93305 7.47525 2.93362C7.52679 2.99643 7.55332 3.27585 7.43405 3.82885C7.29357 3.50669 7.22494 3.23906 7.249 3.07021ZM7.56418 5.00178C7.66353 5.15445 7.7704 5.30863 7.88366 5.46249C8.04614 5.68321 8.22969 5.91236 8.42383 6.1311C8.19924 6.1582 7.96758 6.19317 7.73584 6.23524C7.57903 6.2637 7.30564 6.31739 6.98563 6.39721C7.05661 6.25003 7.12659 6.09748 7.19507 5.94061C7.33117 5.62889 7.45636 5.30993 7.56418 5.00178Z" fill="#114280"/>
</svg>
