<svg width="13" height="14" viewBox="0 0 13 14" fill="none" xmlns="http://www.w3.org/2000/svg">
<path d="M10.5552 9.41704C9.8396 9.41704 9.19484 9.70671 8.74735 10.1675L4.72237 7.83089C4.82983 7.57304 4.88943 7.29298 4.88943 7C4.88943 6.70691 4.82983 6.42685 4.72237 6.16911L8.74735 3.8324C9.19484 4.29318 9.8396 4.58296 10.5552 4.58296C11.9033 4.58296 13 3.55501 13 2.29143C13 1.02785 11.9033 0 10.5552 0C9.20715 0 8.11046 1.02795 8.11046 2.29153C8.11046 2.58452 8.17017 2.86458 8.27751 3.12242L4.25265 5.45903C3.80516 4.99825 3.1604 4.70847 2.44477 4.70847C1.09669 4.70847 0 5.73653 0 7C0 8.26358 1.09669 9.29153 2.44477 9.29153C3.1604 9.29153 3.80516 9.00186 4.25265 8.54097L8.27751 10.8776C8.17017 11.1354 8.11046 11.4155 8.11046 11.7086C8.11046 12.972 9.20715 14 10.5552 14C11.9033 14 13 12.972 13 11.7086C13 10.445 11.9033 9.41704 10.5552 9.41704ZM9.00192 2.29153C9.00192 1.48874 9.69875 0.835587 10.5552 0.835587C11.4117 0.835587 12.1085 1.48874 12.1085 2.29153C12.1085 3.09433 11.4117 3.74748 10.5552 3.74748C9.69875 3.74748 9.00192 3.09433 9.00192 2.29153ZM2.44477 8.45595C1.58818 8.45595 0.891349 7.8028 0.891349 7C0.891349 6.1972 1.58818 5.54405 2.44477 5.54405C3.30125 5.54405 3.99797 6.1972 3.99797 7C3.99797 7.8028 3.30125 8.45595 2.44477 8.45595ZM9.00192 11.7085C9.00192 10.9057 9.69875 10.2525 10.5552 10.2525C11.4117 10.2525 12.1085 10.9057 12.1085 11.7085C12.1085 12.5113 11.4117 13.1644 10.5552 13.1644C9.69875 13.1644 9.00192 12.5113 9.00192 11.7085Z" fill="#8764B8"/>
</svg>
