<svg width="14" height="14" viewBox="0 0 14 14" fill="none" xmlns="http://www.w3.org/2000/svg">
<path d="M10.8182 14H1.90909C1.40277 14 0.917184 13.7989 0.55916 13.4408C0.201136 13.0828 0 12.5972 0 12.0909V3.18182C0 2.6755 0.201136 2.18991 0.55916 1.83189C0.917184 1.47386 1.40277 1.27273 1.90909 1.27273H7C7.16877 1.27273 7.33064 1.33977 7.44998 1.45911C7.56932 1.57846 7.63636 1.74032 7.63636 1.90909C7.63636 2.07787 7.56932 2.23973 7.44998 2.35907C7.33064 2.47841 7.16877 2.54545 7 2.54545H1.90909C1.74032 2.54545 1.57846 2.6125 1.45911 2.73184C1.33977 2.85118 1.27273 3.01304 1.27273 3.18182V12.0909C1.27273 12.2597 1.33977 12.4215 1.45911 12.5409C1.57846 12.6602 1.74032 12.7273 1.90909 12.7273H10.8182C10.987 12.7273 11.1488 12.6602 11.2682 12.5409C11.3875 12.4215 11.4545 12.2597 11.4545 12.0909V7C11.4545 6.83123 11.5216 6.66936 11.6409 6.55002C11.7603 6.43068 11.9221 6.36364 12.0909 6.36364C12.2597 6.36364 12.4215 6.43068 12.5409 6.55002C12.6602 6.66936 12.7273 6.83123 12.7273 7V12.0909C12.7273 12.5972 12.5261 13.0828 12.1681 13.4408C11.8101 13.7989 11.3245 14 10.8182 14ZM5.72727 8.90909C5.64352 8.90958 5.5605 8.89352 5.48297 8.86185C5.40544 8.83019 5.33492 8.78352 5.27545 8.72455C5.21581 8.66539 5.16847 8.59501 5.13616 8.51746C5.10385 8.43991 5.08722 8.35673 5.08722 8.27273C5.08722 8.18872 5.10385 8.10554 5.13616 8.028C5.16847 7.95045 5.21581 7.88007 5.27545 7.82091L11.83 1.27273H10.8182C10.6494 1.27273 10.4875 1.20568 10.3682 1.08634C10.2489 0.966999 10.1818 0.805138 10.1818 0.636364C10.1818 0.46759 10.2489 0.305728 10.3682 0.186387C10.4875 0.0670452 10.6494 0 10.8182 0H13.3636C13.5324 0 13.6943 0.0670452 13.8136 0.186387C13.933 0.305728 14 0.46759 14 0.636364V3.18182C14 3.35059 13.933 3.51245 13.8136 3.6318C13.6943 3.75114 13.5324 3.81818 13.3636 3.81818C13.1949 3.81818 13.033 3.75114 12.9137 3.6318C12.7943 3.51245 12.7273 3.35059 12.7273 3.18182V2.17L6.17909 8.72455C6.11963 8.78352 6.04911 8.83019 5.97158 8.86185C5.89404 8.89352 5.81102 8.90958 5.72727 8.90909Z" fill="#114280"/>
</svg>
