<svg width="17" height="15" viewBox="0 0 17 15" fill="none" xmlns="http://www.w3.org/2000/svg">
<path d="M16.0154 3.78782H14.256V2.71029C14.256 2.16518 13.8144 1.72185 13.2714 1.72185H7.4725C7.33551 1.72185 7.20774 1.66031 7.12199 1.5527L6.18045 0.371013C5.99266 0.135148 5.71226 0 5.41149 0H0.984628C0.441614 0 0 0.443322 0 0.988436V13.3537C0 14.2614 0.735738 15 1.63997 15H15.36C16.2643 15 17 14.2614 17 13.3537V4.77626C17 4.23114 16.5584 3.78782 16.0154 3.78782ZM0.535939 13.3537V0.988651C0.535939 0.740305 0.737238 0.538227 0.984628 0.538227H5.41149C5.54847 0.538227 5.67624 0.599776 5.76199 0.707379L6.70353 1.88907C6.89132 2.12493 7.17173 2.26008 7.4725 2.26008H13.2714C13.5188 2.26008 13.72 2.46216 13.72 2.71051V3.78804H3.72864C3.18562 3.78804 2.74401 4.23136 2.74401 4.77647V13.3537C2.74401 13.3728 2.74358 13.3918 2.74251 13.4107C2.71378 13.9767 2.26038 14.4319 1.69657 14.4607C1.6777 14.4616 1.65884 14.4622 1.63976 14.4622C1.03115 14.462 0.535939 13.9649 0.535939 13.3537ZM16.4641 13.3537C16.4641 13.9649 15.9689 14.462 15.36 14.462H2.85163C2.85184 14.4616 2.85227 14.4613 2.85248 14.4609C2.85699 14.456 2.86127 14.4506 2.86578 14.4456C2.87821 14.4316 2.89064 14.4174 2.90265 14.403C2.90886 14.3957 2.91465 14.388 2.92066 14.3804C2.93052 14.3679 2.94059 14.3555 2.95024 14.3428C2.95667 14.3344 2.96267 14.3255 2.96889 14.3169C2.97768 14.3047 2.98647 14.2926 2.99504 14.2801C3.00126 14.2711 3.00726 14.2616 3.01327 14.2524C3.0212 14.2401 3.02913 14.2278 3.03685 14.2154C3.04285 14.2057 3.04842 14.1958 3.05421 14.1861C3.0615 14.1736 3.06879 14.1613 3.07565 14.1486C3.08122 14.1385 3.08658 14.1284 3.09194 14.1181C3.09859 14.1054 3.10523 14.0927 3.11145 14.0798C3.1166 14.0695 3.12153 14.0589 3.12646 14.0484C3.13246 14.0355 3.13846 14.0225 3.14404 14.0094C3.14875 13.9987 3.15325 13.9879 3.15775 13.9769C3.16311 13.9638 3.16847 13.9504 3.1734 13.9369C3.17748 13.9259 3.18177 13.9149 3.18562 13.9037C3.19034 13.8902 3.19506 13.8764 3.19956 13.8626C3.2032 13.8515 3.20685 13.8403 3.21028 13.8291C3.21456 13.8151 3.21842 13.8011 3.22228 13.7869C3.22528 13.7755 3.2285 13.7643 3.23129 13.7529C3.23493 13.7385 3.23815 13.7238 3.24136 13.7094C3.24393 13.698 3.24651 13.6868 3.24865 13.6754C3.25165 13.6603 3.25422 13.6453 3.2568 13.63C3.25873 13.6188 3.26066 13.6078 3.26237 13.5966C3.26473 13.5807 3.26666 13.5646 3.26837 13.5484C3.26966 13.5379 3.27116 13.5274 3.27223 13.5166C3.27395 13.4987 3.27523 13.4807 3.2763 13.4626C3.27695 13.4535 3.27781 13.4447 3.27823 13.4355C3.27952 13.4083 3.28038 13.3808 3.28038 13.3533V8.8021H3.77344V9.56607H4.30938V8.8021H5.83145V9.56607H6.36739V8.8021H7.88946V9.56607H8.4254V8.8021H9.94747V9.56607H10.4834V8.8021H12.0055V10.5991C12.0055 11.1272 12.4334 11.5567 12.9594 11.5567C13.4855 11.5567 13.9134 11.1272 13.9134 10.5991V8.53309C13.9134 8.3846 13.7934 8.26408 13.6454 8.26408H13.5704V7.50011H13.0345V8.26408H12.273H11.512V7.50011H10.976V8.26408H9.45397V7.50011H8.91803V8.26408H7.39596V7.50011H6.86002V8.26408H5.33796V7.50011H4.80202V8.26408H3.27995V4.77626C3.27995 4.52791 3.48125 4.32583 3.72864 4.32583H13.988H16.0154C16.2628 4.32583 16.4641 4.52791 16.4641 4.77626V13.3537ZM13.377 8.8021V10.5991C13.377 10.8304 13.1895 11.0187 12.959 11.0187C12.7286 11.0187 12.541 10.8304 12.541 10.5991V8.8021H13.302H13.377Z" fill="#8764B8"/>
</svg>
